<?xml version="1.0" standalone="no"?>
<!DOCTYPE svg PUBLIC "-//W3C//DTD SVG 20010904//EN"
 "http://www.w3.org/TR/2001/REC-SVG-20010904/DTD/svg10.dtd">
<svg version="1.0" xmlns="http://www.w3.org/2000/svg"
 width="500.000000pt" height="500.000000pt" viewBox="0 0 500.000000 500.000000"
 preserveAspectRatio="xMidYMid meet">
<metadata>
Created by potrace 1.14, written by Peter Selinger 2001-2017
</metadata>
<g transform="translate(0.000000,500.000000) scale(0.100000,-0.100000)"
fill="#000000" stroke="none">
<path d="M2330 4276 c-73 -16 -96 -29 -157 -89 -29 -29 -68 -66 -87 -83 -50
-45 -70 -120 -64 -246 4 -85 3 -100 -13 -114 -31 -28 -42 -81 -36 -166 7 -90
31 -150 76 -192 17 -17 31 -35 31 -42 0 -34 75 -156 125 -203 201 -190 513
-131 640 121 19 39 35 76 35 82 0 7 16 27 35 46 50 49 69 105 69 214 1 84 -1
95 -25 127 -22 30 -24 39 -16 74 14 66 4 204 -20 257 -29 64 -102 134 -177
169 -115 54 -291 73 -416 45z m278 -111 c119 -28 195 -81 228 -160 18 -45 21
-137 5 -205 -18 -79 -15 -107 17 -122 31 -15 37 -38 27 -116 -5 -44 -14 -62
-46 -97 -22 -23 -47 -65 -56 -91 -21 -63 -37 -89 -87 -142 -64 -69 -126 -96
-216 -96 -90 0 -151 27 -216 96 -42 43 -94 134 -94 163 0 9 -14 30 -31 47 -50
50 -60 72 -66 145 -6 72 0 87 42 95 17 3 19 9 15 48 -3 25 -5 96 -5 159 l0
114 34 26 c19 14 57 49 85 78 29 29 65 54 81 58 17 4 35 8 40 10 28 10 188 3
243 -10z"/>
<path d="M1825 2856 c-311 -104 -367 -128 -426 -187 -72 -72 -79 -97 -79 -316
0 -184 1 -192 21 -207 12 -8 29 -12 38 -9 37 13 41 32 41 220 l0 183 37 41
c20 22 53 49 72 58 44 23 552 193 558 188 3 -4 105 -322 156 -490 l20 -67 215
2 215 3 86 272 c47 149 89 274 92 277 11 11 543 -173 584 -202 80 -56 85 -72
85 -272 0 -181 4 -200 41 -213 9 -3 26 1 38 9 20 14 21 23 21 198 0 213 -9
253 -74 319 -22 23 -64 54 -93 70 -64 34 -606 217 -644 217 -27 0 -29 -5 -69
-132 -23 -73 -64 -200 -90 -283 l-47 -150 -144 -3 -144 -3 -73 233 c-39 128
-79 257 -87 286 -14 46 -19 52 -43 52 -15 0 -153 -42 -307 -94z"/>
<path d="M2385 2828 c-7 -23 -24 -302 -19 -310 3 -4 11 -8 19 -8 16 0 22 35
31 178 l6 102 58 0 58 0 7 -129 c8 -138 13 -158 40 -147 13 5 16 14 12 39 -3
17 -9 84 -13 147 -3 63 -11 121 -16 128 -7 8 -39 12 -95 12 -58 0 -85 -4 -88
-12z"/>
<path d="M1422 1809 c-117 -20 -201 -93 -222 -194 -5 -25 -12 -31 -40 -35 -34
-5 -35 -6 -38 -56 -3 -49 -1 -52 27 -64 25 -10 29 -17 25 -39 -15 -84 -63
-505 -58 -512 3 -5 25 -9 48 -9 56 0 89 26 111 87 13 38 65 395 65 451 0 8 21
12 70 12 83 0 78 20 50 -200 -11 -85 -20 -170 -20 -187 l0 -33 80 0 c44 0 80
3 80 8 0 4 14 115 30 247 16 132 30 252 30 268 l0 27 -155 0 -155 0 13 32 c19
47 55 69 125 75 34 3 66 11 72 18 5 7 13 32 16 57 l6 45 -38 6 c-45 8 -51 8
-122 -4z"/>
<path d="M2085 1811 c-59 -24 -82 -106 -45 -154 31 -39 65 -50 106 -37 43 15
64 45 64 93 0 51 -15 76 -55 93 -39 16 -42 16 -70 5z"/>
<path d="M1786 1788 c-8 -37 -86 -701 -86 -730 l0 -28 79 0 79 0 6 38 c11 67
86 696 86 720 0 21 -4 22 -80 22 -74 0 -80 -1 -84 -22z"/>
<path d="M2555 1581 c-41 -10 -66 -25 -94 -55 -32 -34 -41 -33 -41 4 0 19 -7
33 -19 40 -25 13 -121 13 -121 0 0 -5 -18 -157 -40 -337 -22 -180 -40 -338
-40 -350 0 -22 4 -23 79 -23 l79 0 5 33 c4 17 9 60 13 95 4 34 9 62 13 62 3
-1 17 -7 31 -15 92 -53 245 40 300 181 32 81 35 230 5 288 -33 66 -98 95 -170
77z m6 -152 c19 -19 21 -30 17 -88 -8 -109 -57 -181 -123 -181 -53 0 -58 10
-47 82 12 76 50 157 88 187 33 26 39 26 65 0z"/>
<path d="M3115 1581 c-41 -10 -66 -25 -94 -55 -32 -34 -41 -33 -41 4 0 19 -7
33 -19 40 -25 13 -121 13 -121 0 0 -5 -18 -157 -40 -337 -22 -180 -40 -338
-40 -350 0 -22 4 -23 79 -23 l79 0 5 33 c4 17 9 60 13 95 4 34 9 62 13 62 3
-1 17 -7 31 -15 92 -53 245 40 300 181 32 81 35 230 5 288 -33 66 -98 95 -170
77z m6 -152 c19 -19 21 -30 17 -88 -8 -109 -57 -181 -123 -181 -53 0 -58 10
-47 82 12 76 50 157 88 187 33 26 39 26 65 0z"/>
<path d="M3581 1579 c-123 -24 -209 -123 -231 -266 -22 -141 33 -253 138 -283
148 -41 304 60 348 223 27 103 10 211 -44 270 -43 48 -134 72 -211 56z m79
-149 c15 -15 20 -33 20 -71 0 -115 -46 -199 -110 -199 -26 0 -33 5 -46 37 -29
67 -1 190 51 231 34 27 59 28 85 2z"/>
<path d="M2020 1576 c0 -2 -13 -116 -30 -252 -16 -137 -30 -259 -30 -271 0
-22 4 -23 80 -23 44 0 80 1 81 3 5 16 65 534 62 540 -4 7 -163 10 -163 3z"/>
</g>
</svg>
